<?xml version="1.0" encoding="UTF-8"?>
<svg xmlns="http://www.w3.org/2000/svg" viewBox="0 0 1500 1310" font-family="Menlo, monospace" font-size="11">
  <defs>
    <!-- futex_wait pattern (OMP barrier spin) -->
    <pattern id="futexHatch" patternUnits="userSpaceOnUse" width="6" height="6" patternTransform="rotate(45)">
      <rect width="6" height="6" fill="#fff5e6"/>
      <line x1="0" y1="0" x2="0" y2="6" stroke="#e08a00" stroke-width="1"/>
    </pattern>
    <!-- ep_poll pattern (async_output / ZMQ) -->
    <pattern id="epollHatch" patternUnits="userSpaceOnUse" width="6" height="6" patternTransform="rotate(45)">
      <rect width="6" height="6" fill="#e6f0ff"/>
      <line x1="0" y1="0" x2="0" y2="6" stroke="#3061ab" stroke-width="1"/>
    </pattern>
    <!-- do_poll pattern (CUDA event wait) -->
    <pattern id="dopollHatch" patternUnits="userSpaceOnUse" width="6" height="6" patternTransform="rotate(45)">
      <rect width="6" height="6" fill="#e9f5e1"/>
      <line x1="0" y1="0" x2="0" y2="6" stroke="#4a7e1f" stroke-width="1"/>
    </pattern>
    <!-- async hidden lane pattern ★ NEW — swap path wall hidden 표시 -->
    <pattern id="asyncHidden" patternUnits="userSpaceOnUse" width="10" height="10">
      <rect width="10" height="10" fill="#e8e8e8" opacity="0.4"/>
      <line x1="0" y1="10" x2="10" y2="0" stroke="#888" stroke-width="0.6" stroke-dasharray="2,1"/>
    </pattern>
    <!-- OMP barrier wait pattern ★ NEW — cdec_executor 안 visualization -->
    <pattern id="ompBarrierWait" patternUnits="userSpaceOnUse" width="8" height="8" patternTransform="rotate(135)">
      <rect width="8" height="8" fill="#ffe0b2"/>
      <line x1="0" y1="0" x2="0" y2="8" stroke="#d62828" stroke-width="1.2"/>
    </pattern>
    <!-- ISPC actual compute pattern ★ NEW -->
    <pattern id="ispcCompute" patternUnits="userSpaceOnUse" width="8" height="8">
      <rect width="8" height="8" fill="#cfe2f3"/>
      <circle cx="4" cy="4" r="1.5" fill="#3061ab"/>
    </pattern>
    <marker id="arr_wait" markerWidth="9" markerHeight="7" refX="8" refY="3.5" orient="auto">
      <polygon points="0 0, 9 3.5, 0 7" fill="#c00"/>
    </marker>
    <marker id="arr_hide" markerWidth="9" markerHeight="7" refX="8" refY="3.5" orient="auto">
      <polygon points="0 0, 9 3.5, 0 7" fill="#666"/>
    </marker>
  </defs>

  <rect width="1500" height="1310" fill="#fafafa"/>

  <!-- TITLE -->
  <text x="750" y="20" text-anchor="middle" font-size="14" font-weight="bold" fill="#222">현재 코드 베이스 (HEAD `0776086f5`, branch `feat/neo-amx-apply`) — 1-step timeline (default 환경 runtime, mechanism = S1-S9)</text>
  <text x="750" y="36" text-anchor="middle" font-size="10" fill="#c00" font-weight="bold">
    ⚠️ 코드 적재 영역: S1-S9 + SUB_015-Phase 3 (P3 K BF16+AMX) + P4 (async cdec) + D (OOB silent) + OOB G/H fix — 본 도식은 default env (모두 OFF) runtime path. env-ON 영역 측정 §17 참조.
  </text>
  <text x="750" y="50" text-anchor="middle" font-size="10" fill="#555">
    perf record 60s (2026-05-17): libgomp 43.75% (OMP barrier wait) + libpacpu 26.38% (ISPC compute) + libtorch_cpu 10.24% (★ async wall hidden) + python 1.84%.
  </text>
  <text x="750" y="64" text-anchor="middle" font-size="10" font-weight="bold" fill="#0a7c3a">
    ★ HEAD `0776086f5` validation: env-OFF 894.6 tps (100p) / env-ON 100p 906.8 tps (+1.4%) / ★ env-ON 500p 1,833.95 tps = v1.6 best 1,833.0 (+0.05%, noise) — env-ON 영구 stable ✓
  </text>

  <!-- TIME AXIS — 1 ms = 11 px, x=160 ~ 1480 (0~120 ms) -->
  <line x1="160" y1="1095" x2="1480" y2="1095" stroke="#444" stroke-width="1"/>
  <g font-size="10" fill="#444">
    <text x="160" y="1115" text-anchor="middle">0</text>
    <text x="270" y="1115" text-anchor="middle">10</text>
    <text x="380" y="1115" text-anchor="middle">20</text>
    <text x="490" y="1115" text-anchor="middle">30</text>
    <text x="600" y="1115" text-anchor="middle">40</text>
    <text x="694" y="1130" text-anchor="middle" font-weight="bold" fill="#0a7c3a">54 ms ← vanilla 끝</text>
    <text x="710" y="1115" text-anchor="middle">50</text>
    <text x="820" y="1115" text-anchor="middle">60</text>
    <text x="930" y="1115" text-anchor="middle">70</text>
    <text x="1040" y="1115" text-anchor="middle">80</text>
    <text x="1150" y="1115" text-anchor="middle">90</text>
    <text x="1260" y="1115" text-anchor="middle">100</text>
    <text x="1370" y="1115" text-anchor="middle">110</text>
    <text x="1359" y="1130" text-anchor="middle" font-weight="bold" fill="#c00">109 ms ← NEO 끝</text>
  </g>
  <g stroke="#aaa" stroke-width="0.5">
    <line x1="160" y1="1091" x2="160" y2="1099"/>
    <line x1="270" y1="1091" x2="270" y2="1099"/>
    <line x1="380" y1="1091" x2="380" y2="1099"/>
    <line x1="490" y1="1091" x2="490" y2="1099"/>
    <line x1="600" y1="1091" x2="600" y2="1099"/>
    <line x1="710" y1="1091" x2="710" y2="1099"/>
    <line x1="820" y1="1091" x2="820" y2="1099"/>
    <line x1="930" y1="1091" x2="930" y2="1099"/>
    <line x1="1040" y1="1091" x2="1040" y2="1099"/>
    <line x1="1150" y1="1091" x2="1150" y2="1099"/>
    <line x1="1260" y1="1091" x2="1260" y2="1099"/>
    <line x1="1370" y1="1091" x2="1370" y2="1099"/>
  </g>
  <line x1="754" y1="75" x2="754" y2="1095" stroke="#0a7c3a" stroke-width="1.5" stroke-dasharray="6,3"/>
  <text x="760" y="70" font-size="10" font-weight="bold" fill="#0a7c3a">vanilla 54 ms</text>
  <line x1="1359" y1="75" x2="1359" y2="1095" stroke="#c00" stroke-width="1.5" stroke-dasharray="6,3"/>
  <text x="1365" y="70" font-size="10" font-weight="bold" fill="#c00">NEO 109 ms</text>

  <!-- ============================================================== -->
  <!-- TOP: vanilla 간략 -->
  <!-- ============================================================== -->
  <text x="155" y="98" text-anchor="end" font-weight="bold" fill="#222">vanilla (NEO OFF)</text>
  <text x="155" y="112" text-anchor="end" font-size="9" fill="#777">단순: main + GPU stream</text>
  <text x="155" y="143" text-anchor="end" fill="#222">Main thread</text>
  <line x1="160" y1="160" x2="1480" y2="160" stroke="#ddd"/>
  <rect x="160" y="126" width="22" height="34" fill="#ffd966" stroke="#caa040" stroke-width="0.5"/>
  <text x="171" y="147" text-anchor="middle" font-size="8">sched</text>
  <rect x="182" y="126" width="572" height="34" fill="#fce5cd" stroke="#caa040" stroke-width="0.5"/>
  <text x="468" y="147" text-anchor="middle" font-size="10">Python forward dispatch (단일 batch, 80 layer)</text>

  <text x="155" y="188" text-anchor="end" fill="#222">GPU default stream</text>
  <line x1="160" y1="205" x2="1480" y2="205" stroke="#ddd"/>
  <rect x="182" y="170" width="572" height="34" fill="#b6d7a8" stroke="#6aa84f" stroke-width="0.5"/>
  <text x="468" y="190" text-anchor="middle" font-size="10">GPU compute 80 layer (vanilla 54 ms)</text>

  <text x="155" y="234" text-anchor="end" fill="#222">기타 thread</text>
  <line x1="160" y1="250" x2="1480" y2="250" stroke="#ddd"/>
  <rect x="182" y="216" width="572" height="34" fill="url(#dopollHatch)" stroke="#4a7e1f" stroke-width="0.5"/>
  <text x="468" y="235" text-anchor="middle" font-size="9" fill="#4a7e1f">cuda-EvtHandlr: do_poll (GPU event 기다림)</text>

  <line x1="0" y1="270" x2="1500" y2="270" stroke="#444" stroke-width="1"/>

  <!-- ============================================================== -->
  <!-- BOTTOM: NEO S1-S9 의 thread 별 wait state — 동적 분석 정정 -->
  <!-- ============================================================== -->
  <text x="155" y="285" text-anchor="end" font-size="10" font-weight="bold" fill="#222">현재 코드 (HEAD 0776086f5)</text>
  <text x="155" y="297" text-anchor="end" font-size="9" fill="#555">= S1-S9 mechanism — thread 별 wait state</text>
  <text x="155" y="309" text-anchor="end" font-size="9" fill="#777">main running. swap = async hidden. ② = barrier+compute 분해.</text>

  <!-- ── Lane 1: Main thread (Py + C++) ── -->
  <text x="155" y="333" text-anchor="end" font-weight="bold" fill="#222">Main thread</text>
  <text x="155" y="345" text-anchor="end" font-size="8" fill="#777">running (1 core, 78% util)</text>
  <line x1="160" y1="355" x2="1480" y2="355" stroke="#ddd"/>
  <rect x="160" y="320" width="22" height="34" fill="#ffd966" stroke="#caa040" stroke-width="0.5"/>
  <text x="171" y="341" text-anchor="middle" font-size="8">sched</text>
  <rect x="182" y="320" width="572" height="34" fill="#fce5cd" stroke="#caa040" stroke-width="0.5"/>
  <text x="468" y="335" text-anchor="middle" font-size="9">Python forward + cdec direct + cudaLaunch (80 layer 반복)</text>
  <text x="468" y="348" text-anchor="middle" font-size="7" fill="#a06000">매 layer: GPU launch → transfer launch → paged_attention_cpu (OMP fork) → post-cdec</text>
  <!-- ① Python overhead +12 ms -->
  <rect x="754" y="320" width="132" height="34" fill="#f4cccc" stroke="#c44545" stroke-width="1"/>
  <text x="820" y="337" text-anchor="middle" font-size="9" fill="#c00">★ ① Py overhead +12 ms</text>
  <!-- ② cdec leftover +18 ms — b1 attention cdec, cdec_wait_avg=0.000 ms validation ✓ -->
  <rect x="886" y="320" width="198" height="34" fill="#cfe2f3" stroke="#3061ab" stroke-width="1.5"/>
  <text x="985" y="335" text-anchor="middle" font-size="9" font-weight="bold" fill="#0a3a6b">★ ② b1 cdec leftover +18 ms ✓</text>
  <text x="985" y="348" text-anchor="middle" font-size="7" fill="#000">(b1 attn 의 CPU 실행, S5 direct, cdec_wait_avg=0.000ms ✓ 측정 정합)</text>
  <!-- ③ step-end TBD +25 ms — swap 영역 100% async 확정, wall 기여 0 -->
  <rect x="1084" y="320" width="275" height="34" fill="#fff2cc" stroke="#caa040" stroke-width="1.2" stroke-dasharray="4,2"/>
  <text x="1221" y="333" text-anchor="middle" font-size="9" font-weight="bold" fill="#a06000">★ ③ step-end +25 ms (source TBD)</text>
  <text x="1221" y="347" text-anchor="middle" font-size="7" fill="#a06000">swap 영역 wall = literally 0 (100% async ✓) — source = sample/emit/admit 가설</text>

  <!-- ── Lane 2: GPU default stream — 실제 계산 ── -->
  <text x="155" y="383" text-anchor="end" font-weight="bold" fill="#222">GPU default stream</text>
  <text x="155" y="395" text-anchor="end" font-size="8" fill="#777">b0 / b1 sub-batch 통합 queue</text>
  <line x1="160" y1="407" x2="1480" y2="407" stroke="#ddd"/>
  <!-- b0 sub-band (top half, y=372-388) — full forward (preproj + attention + postproj + MLP + AllReduce) -->
  <rect x="182" y="372" width="572" height="17" fill="#6aa84f" stroke="#3d6b29" stroke-width="0.5"/>
  <text x="468" y="384" text-anchor="middle" font-size="8" fill="#fff" font-weight="bold">b0 sub-batch (GPU full): preproj + attention + postproj + MLP + AllReduce</text>
  <!-- b1 sub-band (bottom half, y=389-406) — preproj + postproj only, attention SKIPPED -->
  <rect x="182" y="389" width="572" height="17" fill="#b6d7a8" stroke="#6aa84f" stroke-width="0.5" stroke-dasharray="3,1"/>
  <text x="468" y="401" text-anchor="middle" font-size="8" fill="#0a7c3a" font-weight="bold">b1 sub-batch (cdec): preproj + [★ attn SKIPPED] + postproj + MLP + AllReduce</text>
  <!-- GPU IDLE (54-80 ms) — cdec leftover -->
  <rect x="754" y="372" width="330" height="34" fill="#eeeeee" stroke="#999" stroke-width="0.5" stroke-dasharray="3,2"/>
  <text x="919" y="389" text-anchor="middle" font-size="9" fill="#666">★ GPU IDLE — main 이 b1 cdec leftover 처리 중</text>
  <text x="919" y="402" text-anchor="middle" font-size="7" fill="#666">(b1's attention 이 CPU 에서 끝나야 b1 의 다음 step 진행 가능)</text>
  <rect x="1084" y="372" width="275" height="34" fill="#b6d7a8" stroke="#6aa84f" stroke-width="0.5"/>
  <text x="1221" y="392" text-anchor="middle" font-size="9">next step prep</text>
  <!-- ★ b1 attn 의 SKIP → cdec_executor dispatch 화살표 (GPU lane b1 영역 → cdec_executor lane) -->
  <path d="M 400 405 L 400 510" stroke="#d62828" stroke-width="1.8" fill="none" marker-end="url(#arr_wait)" stroke-dasharray="5,2"/>
  <text x="408" y="450" font-size="8" font-weight="bold" fill="#d62828">★ b1 attn SKIP</text>
  <text x="408" y="461" font-size="8" font-weight="bold" fill="#d62828">→ cdec_executor</text>
  <text x="408" y="472" font-size="7" fill="#d62828">(skip_gpu=13.2%</text>
  <text x="408" y="481" font-size="7" fill="#d62828"> b1-only layer)</text>

  <!-- ── Lane 3: cpu_comm_stream (wall path async, overlap 적극 활용) ── -->
  <text x="155" y="431" text-anchor="end" font-weight="bold" fill="#222">cpu_comm_stream</text>
  <text x="155" y="443" text-anchor="end" font-size="8" fill="#777">Q/K/V transfer + result D2D (overlap)</text>
  <line x1="160" y1="455" x2="1480" y2="455" stroke="#ddd"/>
  <rect x="200" y="420" width="554" height="32" fill="#d9d2e9" stroke="#674ea7" stroke-width="0.8"/>
  <text x="477" y="440" text-anchor="middle" font-size="9" fill="#4a316b">transfer (Q/K/V H2D) + cdec result_copy (D2D) — forward 와 overlap</text>

  <!-- ── Lane 4: ★ NEW — swap_stream (async, wall HIDDEN) — turn 5 validation ── -->
  <text x="155" y="479" text-anchor="end" font-weight="bold" fill="#888">swap_stream</text>
  <text x="155" y="491" text-anchor="end" font-size="8" fill="#0a7c3a" font-weight="bold">★ 100% async ✓ (12,232/12,232)</text>
  <line x1="160" y1="503" x2="1480" y2="503" stroke="#ddd"/>
  <!-- swap_out (현재 HEAD 100% async — SUB_025 39.7% → SUB_026 60-70% → 현재 100%) -->
  <rect x="182" y="468" width="1177" height="32" fill="url(#asyncHidden)" stroke="#0a7c3a" stroke-width="1.2" stroke-dasharray="4,2"/>
  <text x="770" y="483" text-anchor="middle" font-size="10" font-weight="bold" fill="#0a7c3a">cudaMemcpyAsync (swap_out D→H + swap_in H→D) — 100% async, sync fallback 0 ★ HEAD 0776086f5 (env-OFF 12,232/12,232 + env-ON 12,224/12,224)</text>
  <text x="770" y="496" text-anchor="middle" font-size="8" fill="#666">libtorch_cpu 10.24% cycle = parallel work (cdec_executor 와 동시 실행) — wall 기여 = literally 0 (사용자 지적 정량 backing)</text>
  <!-- swap_out gather/DMA blips throughout -->
  <g fill="#888">
    <rect x="220" y="468" width="3" height="32"/>
    <rect x="280" y="468" width="3" height="32"/>
    <rect x="340" y="468" width="3" height="32"/>
    <rect x="400" y="468" width="3" height="32"/>
    <rect x="500" y="468" width="3" height="32"/>
    <rect x="600" y="468" width="3" height="32"/>
    <rect x="700" y="468" width="3" height="32"/>
    <rect x="850" y="468" width="3" height="32"/>
    <rect x="950" y="468" width="3" height="32"/>
    <rect x="1050" y="468" width="3" height="32"/>
    <rect x="1150" y="468" width="3" height="32"/>
    <rect x="1250" y="468" width="3" height="32"/>
  </g>
  <!-- drain wait (작은 wall 기여) -->
  <rect x="1259" y="468" width="40" height="32" fill="#bdbdbd" stroke="#666" stroke-width="0.8"/>
  <text x="1279" y="486" text-anchor="middle" font-size="7" fill="#333">drain</text>
  <text x="1279" y="495" text-anchor="middle" font-size="6" fill="#333">~3 ms</text>

  <!-- ── Lane 5: cdec_executor — ★ b1 attention only, NEW 내부 분해 (barrier wait + actual compute) ── -->
  <text x="155" y="525" text-anchor="end" font-weight="bold" fill="#d62828">cdec_executor</text>
  <text x="155" y="536" text-anchor="end" font-size="8" fill="#d62828" font-weight="bold">★ b1 attention only</text>
  <text x="155" y="547" text-anchor="end" font-size="7" fill="#d62828">(S5 direct, main thread 실행)</text>
  <text x="155" y="557" text-anchor="end" font-size="7" fill="#d62828">cycle: barrier 62% + compute 38%</text>
  <line x1="160" y1="568" x2="1480" y2="568" stroke="#ddd"/>
  <!-- cdec_executor lane 안 — 80 layer × layer 당 paged_attention_cpu master + OMP team -->
  <rect x="200" y="510" width="554" height="56" fill="#ffeeee" stroke="#d62828" stroke-width="0.5"/>
  <text x="477" y="524" text-anchor="middle" font-size="9" font-weight="bold" fill="#a01010">★ b1's attention (paged_attention_cpu) × 80 layer — b0 attn 은 GPU stream, b1 attn 은 여기 CPU</text>
  <!-- 안: barrier wait 62% (위쪽 분할) + actual compute 38% (아래쪽 분할) -->
  <rect x="200" y="528" width="554" height="22" fill="url(#ompBarrierWait)" stroke="#d62828" stroke-width="0.5"/>
  <text x="477" y="542" text-anchor="middle" font-size="8" font-weight="bold" fill="#a01010">★ libgomp barrier wait 62% — barrier #1 (store_kv→attn) + #2 (attn→gather) + implicit (parallel end)</text>
  <rect x="200" y="550" width="554" height="14" fill="url(#ispcCompute)" stroke="#3061ab" stroke-width="0.5"/>
  <text x="477" y="560" text-anchor="middle" font-size="7" fill="#0a3a6b">libpacpu 38% — softmax 37% + qk 33% + av 30% of compute</text>

  <!-- cdec leftover region (54-72 ms, ② visible wall) — same internal split -->
  <rect x="754" y="510" width="330" height="56" fill="#ffd6d6" stroke="#d62828" stroke-width="1"/>
  <text x="919" y="524" text-anchor="middle" font-size="9" font-weight="bold" fill="#a01010">cdec leftover (vanilla 끝~) — ② wall +18 ms</text>
  <rect x="754" y="528" width="330" height="22" fill="url(#ompBarrierWait)" stroke="#d62828" stroke-width="0.5"/>
  <text x="919" y="542" text-anchor="middle" font-size="8" font-weight="bold" fill="#a01010">barrier wait +11.2 ms (62%) ★★★</text>
  <rect x="754" y="550" width="330" height="14" fill="url(#ispcCompute)" stroke="#3061ab" stroke-width="0.5"/>
  <text x="919" y="560" text-anchor="middle" font-size="7" fill="#0a3a6b">actual ISPC compute +6.8 ms (38%)</text>

  <!-- barrier marker — barrier #1 / #2 위치 표시 (visualize within compute area) -->
  <g stroke="#d62828" stroke-width="1.5" stroke-dasharray="2,1">
    <line x1="230" y1="510" x2="230" y2="566"/>
    <line x1="265" y1="510" x2="265" y2="566"/>
    <line x1="290" y1="510" x2="290" y2="566"/>
    <line x1="325" y1="510" x2="325" y2="566"/>
    <line x1="350" y1="510" x2="350" y2="566"/>
    <line x1="385" y1="510" x2="385" y2="566"/>
    <line x1="410" y1="510" x2="410" y2="566"/>
    <line x1="445" y1="510" x2="445" y2="566"/>
    <line x1="470" y1="510" x2="470" y2="566"/>
    <line x1="505" y1="510" x2="505" y2="566"/>
    <line x1="530" y1="510" x2="530" y2="566"/>
    <line x1="565" y1="510" x2="565" y2="566"/>
    <line x1="590" y1="510" x2="590" y2="566"/>
    <line x1="625" y1="510" x2="625" y2="566"/>
    <line x1="650" y1="510" x2="650" y2="566"/>
    <line x1="685" y1="510" x2="685" y2="566"/>
    <line x1="710" y1="510" x2="710" y2="566"/>
    <line x1="745" y1="510" x2="745" y2="566"/>
    <!-- leftover region barriers (denser, 더 많은 barrier hit) -->
    <line x1="780" y1="510" x2="780" y2="566"/>
    <line x1="810" y1="510" x2="810" y2="566"/>
    <line x1="840" y1="510" x2="840" y2="566"/>
    <line x1="870" y1="510" x2="870" y2="566"/>
    <line x1="900" y1="510" x2="900" y2="566"/>
    <line x1="930" y1="510" x2="930" y2="566"/>
    <line x1="960" y1="510" x2="960" y2="566"/>
    <line x1="990" y1="510" x2="990" y2="566"/>
    <line x1="1020" y1="510" x2="1020" y2="566"/>
    <line x1="1050" y1="510" x2="1050" y2="566"/>
  </g>
  <text x="200" y="506" font-size="7" fill="#d62828">|=barrier #1/#2/implicit (80 layer × 3 = ~240 barrier hits/step)</text>

  <!-- ── Lane 6: OMP worker thread (80 = 10 × 8 worker) — 핵심 wait state lane ── -->
  <text x="155" y="595" text-anchor="end" font-weight="bold" fill="#e08a00">OMP worker × 80</text>
  <text x="155" y="609" text-anchor="end" font-size="8" fill="#e08a00">★ libgomp 43.75% cycle</text>
  <line x1="160" y1="623" x2="1480" y2="623" stroke="#ddd"/>
  <rect x="182" y="585" width="1177" height="35" fill="url(#futexHatch)" stroke="#e08a00" stroke-width="0.8"/>
  <text x="770" y="600" text-anchor="middle" font-size="10" font-weight="bold" fill="#a06000">futex_wait_queue ★ (대부분 시간)</text>
  <text x="770" y="613" text-anchor="middle" font-size="8" fill="#a06000">80 thread 가 OMP barrier (cdec_executor lane 의 barrier #1/#2/implicit) 풀리길 기다리며 spin → libgomp 43.75% 의 source</text>
  <!-- active blip — 80 layer 의 fork 시점 -->
  <g fill="#e08a00">
    <rect x="195" y="585" width="3" height="35"/>
    <rect x="208" y="585" width="3" height="35"/>
    <rect x="221" y="585" width="3" height="35"/>
    <rect x="235" y="585" width="3" height="35"/>
    <rect x="250" y="585" width="3" height="35"/>
    <rect x="265" y="585" width="3" height="35"/>
    <rect x="280" y="585" width="3" height="35"/>
    <rect x="295" y="585" width="3" height="35"/>
    <rect x="310" y="585" width="3" height="35"/>
    <rect x="325" y="585" width="3" height="35"/>
    <rect x="340" y="585" width="3" height="35"/>
    <rect x="355" y="585" width="3" height="35"/>
    <rect x="370" y="585" width="3" height="35"/>
    <rect x="385" y="585" width="3" height="35"/>
    <rect x="400" y="585" width="3" height="35"/>
    <rect x="415" y="585" width="3" height="35"/>
    <rect x="430" y="585" width="3" height="35"/>
    <rect x="445" y="585" width="3" height="35"/>
    <rect x="460" y="585" width="3" height="35"/>
    <rect x="475" y="585" width="3" height="35"/>
    <rect x="490" y="585" width="3" height="35"/>
    <rect x="505" y="585" width="3" height="35"/>
    <rect x="520" y="585" width="3" height="35"/>
    <rect x="535" y="585" width="3" height="35"/>
    <rect x="550" y="585" width="3" height="35"/>
    <rect x="565" y="585" width="3" height="35"/>
    <rect x="580" y="585" width="3" height="35"/>
    <rect x="595" y="585" width="3" height="35"/>
    <rect x="610" y="585" width="3" height="35"/>
    <rect x="625" y="585" width="3" height="35"/>
    <rect x="640" y="585" width="3" height="35"/>
    <rect x="655" y="585" width="3" height="35"/>
    <rect x="670" y="585" width="3" height="35"/>
    <rect x="685" y="585" width="3" height="35"/>
    <rect x="700" y="585" width="3" height="35"/>
    <rect x="715" y="585" width="3" height="35"/>
    <rect x="730" y="585" width="3" height="35"/>
    <rect x="745" y="585" width="3" height="35"/>
    <rect x="900" y="585" width="3" height="35"/>
    <rect x="925" y="585" width="3" height="35"/>
    <rect x="950" y="585" width="3" height="35"/>
    <rect x="975" y="585" width="3" height="35"/>
    <rect x="1000" y="585" width="3" height="35"/>
    <rect x="1025" y="585" width="3" height="35"/>
    <rect x="1050" y="585" width="3" height="35"/>
  </g>

  <!-- 화살표: OMP worker wait → cdec_executor barrier (변경: GPU 가 아니라 cdec lane 의 barrier) -->
  <path d="M 350 585 L 350 568" stroke="#c00" stroke-width="1.5" fill="none" marker-end="url(#arr_wait)"/>
  <text x="355" y="580" font-size="9" font-weight="bold" fill="#c00">↑ 기다리는 = cdec_executor 안 OMP barrier 풀림</text>

  <!-- ── Lane 7: async_output thread (Py background) ── -->
  <text x="155" y="650" text-anchor="end" font-weight="bold" fill="#3061ab">async_output thread</text>
  <text x="155" y="662" text-anchor="end" font-size="8" fill="#3061ab">Python background</text>
  <line x1="160" y1="672" x2="1480" y2="672" stroke="#ddd"/>
  <rect x="182" y="637" width="1077" height="32" fill="url(#epollHatch)" stroke="#3061ab" stroke-width="0.8"/>
  <text x="720" y="653" text-anchor="middle" font-size="10" font-weight="bold" fill="#1a3a6b">ep_poll (대부분 시간)</text>
  <text x="720" y="666" text-anchor="middle" font-size="8" fill="#1a3a6b">socket activity 기다림 — main GIL hold 중. cudaEvent signal / ZMQ msg 에 wake.</text>
  <rect x="1259" y="637" width="100" height="32" fill="#9fc5e8" stroke="#3061ab" stroke-width="0.7"/>
  <text x="1309" y="654" text-anchor="middle" font-size="9" fill="#1a3a6b">cudaEventSync</text>
  <text x="1309" y="664" text-anchor="middle" font-size="9" fill="#1a3a6b">+ emit (active)</text>

  <!-- ── Lane 8: cuda-EvtHandlr thread ── -->
  <text x="155" y="697" text-anchor="end" font-weight="bold" fill="#4a7e1f">cuda-EvtHandlr</text>
  <text x="155" y="709" text-anchor="end" font-size="8" fill="#4a7e1f">CUDA driver thread</text>
  <line x1="160" y1="719" x2="1480" y2="719" stroke="#ddd"/>
  <rect x="182" y="684" width="1177" height="32" fill="url(#dopollHatch)" stroke="#4a7e1f" stroke-width="0.8"/>
  <text x="770" y="700" text-anchor="middle" font-size="10" font-weight="bold" fill="#2a5e0f">do_poll (대부분 시간)</text>
  <text x="770" y="713" text-anchor="middle" font-size="8" fill="#2a5e0f">GPU event 기다림 — main 의 cudaEventSync 시 active polling.</text>

  <!-- ── Lane 9: pt_nccl_watchdg + pt_gloo_runloop ── -->
  <text x="155" y="744" text-anchor="end" font-weight="bold" fill="#e08a00">pt_nccl_watchdg</text>
  <text x="155" y="756" text-anchor="end" font-size="8" fill="#e08a00">+ pt_gloo_runloop</text>
  <line x1="160" y1="766" x2="1480" y2="766" stroke="#ddd"/>
  <rect x="182" y="731" width="1177" height="32" fill="url(#futexHatch)" stroke="#e08a00" stroke-width="0.8"/>
  <text x="770" y="747" text-anchor="middle" font-size="9" fill="#a06000">futex_wait — 다음 NCCL invocation 기다림 (매 layer 의 AllReduce launch 시 짧게 active)</text>

  <!-- NCCL barrier overlay (GPU stream lane 위) -->
  <g fill="#d62828">
    <rect x="232" y="372" width="3" height="34"/>
    <rect x="294" y="372" width="3" height="34"/>
    <rect x="356" y="372" width="3" height="34"/>
    <rect x="418" y="372" width="3" height="34"/>
    <rect x="480" y="372" width="3" height="34"/>
    <rect x="542" y="372" width="3" height="34"/>
    <rect x="604" y="372" width="3" height="34"/>
    <rect x="666" y="372" width="3" height="34"/>
    <rect x="728" y="372" width="3" height="34"/>
  </g>
  <text x="155" y="392" text-anchor="end" font-size="8" fill="#d62828">NCCL →</text>

  <!-- ============================================================== -->
  <!-- 동적 분석 fact 분해 표 -->
  <!-- ============================================================== -->
  <text x="160" y="810" font-size="13" font-weight="bold" fill="#c00">★ 동적 분석 (perf record 60s) — cycle 분포 vs wall 기여</text>

  <g font-size="10">
    <rect x="190" y="828" width="14" height="10" fill="url(#ompBarrierWait)" stroke="#d62828"/>
    <text x="210" y="837" fill="#a01010" font-weight="bold">libgomp 43.75% (★★★ TRUE TOP):</text>
    <text x="420" y="837" fill="#222">OMP barrier wait (`gomp_team_barrier_wait_*`, 0x1de60 offset family). cdec_executor 안 barrier #1/#2/implicit 의 imbalance wait.</text>
    <text x="210" y="850" fill="#222">→ wall 기여: <tspan font-weight="bold" fill="#a01010">② 안 +11.2 ms (cdec leftover 의 62%)</tspan>. 영구 제거 시 wall -11 ms ≈ +10% throughput.</text>

    <rect x="190" y="866" width="14" height="10" fill="url(#ispcCompute)" stroke="#3061ab"/>
    <text x="210" y="875" fill="#0a3a6b" font-weight="bold">libpacpu 26.38%:</text>
    <text x="420" y="875" fill="#222">ISPC kernel actual work — softmax 9.73% (cycle/FLOP worst) + qk 8.75% + av 7.90%.</text>
    <text x="210" y="888" fill="#222">→ wall 기여: <tspan font-weight="bold" fill="#0a3a6b">② 안 +6.8 ms (cdec leftover 의 38%)</tspan>. softmax fast_exp 적용 시 -2 ms 가능.</text>

    <rect x="190" y="904" width="14" height="10" fill="url(#asyncHidden)" stroke="#888"/>
    <text x="210" y="913" fill="#666" font-weight="bold">libtorch_cpu 10.24% (★ async, wall HIDDEN):</text>
    <text x="450" y="913" fill="#222">ATen swap path — index_put 4.85% + copy_kernel 3.27% + index 2.12%.</text>
    <text x="210" y="926" fill="#222">→ wall 기여: <tspan font-weight="bold" fill="#666">~0-5 ms (drain wait 만)</tspan>. swap_stream + cdec_executor parallel work → main thread block X. 사용자 지적 정합.</text>

    <rect x="190" y="942" width="14" height="10" fill="#fce5cd" stroke="#caa040"/>
    <text x="210" y="951" fill="#a06000" font-weight="bold">python 1.84%:</text>
    <text x="380" y="951" fill="#222">interpreter dispatch. ① +12 ms Python overhead 의 일부 source.</text>

    <text x="170" y="975" fill="#000" font-weight="bold">합산: cycle 80.21% = wall path (libgomp 43.75 + libpacpu 26.38 + python 1.84 ≈ libtorch CPU 일부 spillover). 나머지 wall hidden.</text>
    <text x="170" y="989" fill="#c00" font-weight="bold">★ 진정한 lever priority: OMP barrier 제거 (-11 ms) > KMP_BLOCKTIME=INF (-2-4 ms) > softmax fast_exp (-2 ms) > AMX/F3 (-1 ms) > swap 가속 (deprioritize, async hidden).</text>
  </g>

  <!-- 핵심 메시지 (강조 박스) — turn 5 측정 fact 적용 -->
  <rect x="155" y="1005" width="1320" height="98" fill="#fff5e6" stroke="#e08a00" stroke-width="1.5"/>
  <text x="170" y="1025" font-size="12" font-weight="bold" fill="#a06000">★ HEAD `0776086f5` 측정 validation (2026-05-20~21, env-OFF 100p + env-ON 100p + ★ env-ON 500p × 1-run = 1,833.95 tps = v1.6 best +0.05% noise, crash 0 ✓)</text>
  <g font-size="10">
    <text x="170" y="1045" fill="#222">1. <tspan font-weight="bold" fill="#0a7c3a">cdec_wait_avg = 0.000 ms ✓✓</tspan> (8 TPs perfectly symmetric, 70 emits/TP steady) — S5 direct call mechanism 정합 영구 확정.</text>
    <text x="170" y="1061" fill="#222">2. <tspan font-weight="bold" fill="#0a7c3a">swap_out = 100% async (12,232/12,232) ✓✓</tspan> — SUB_025 39.7% → SUB_026 60-70% → 현재 100%. swap path wall HIDDEN 영구 확정. ③ "+25 ms" 의 swap 영역 기여 = literally 0.</text>
    <text x="170" y="1077" fill="#222">3. <tspan font-weight="bold" fill="#c00">② cdec 안의 진정한 dominant</tspan> = libgomp barrier wait (43.75% cycle × 62% = +11.2 ms wall, perf record 2026-05-17). 단 perf 미설치로 current HEAD re-verification X (mechanism 동일 → distribution shift 거의 없을 추정).</text>
    <text x="170" y="1093" fill="#222">4. <tspan font-weight="bold" fill="#0a7c3a">즉시 lever</tspan>: OMP_NUM_THREADS sweep + KMP_BLOCKTIME=INF + barrier #1 제거 검토 (batch_size ≤ ws 시) ≫ softmax fast_exp ≫ F3 K BF16 host store. swap 가속 deprioritize (이미 100% async).</text>
  </g>

  <!-- LEGEND -->
  <g font-size="9" transform="translate(1240, 82)">
    <text x="0" y="-2" font-weight="bold">Legend</text>
    <rect x="0" y="5" width="14" height="14" fill="#fce5cd" stroke="#caa040"/>
    <text x="18" y="15" fill="#000">main thread Python (running)</text>
    <rect x="0" y="22" width="14" height="14" fill="#6aa84f" stroke="#3d6b29"/>
    <text x="18" y="32" fill="#000" font-weight="bold">b0 sub-batch (GPU full forward)</text>
    <rect x="0" y="39" width="14" height="14" fill="#b6d7a8" stroke="#6aa84f" stroke-dasharray="3,1"/>
    <text x="18" y="49" fill="#000" font-weight="bold">b1 sub-batch (GPU preproj+post, attn SKIP)</text>
    <rect x="0" y="56" width="14" height="14" fill="#d9d2e9" stroke="#674ea7"/>
    <text x="18" y="66" fill="#000">cpu_comm_stream (wall path async)</text>
    <rect x="0" y="73" width="14" height="14" fill="url(#asyncHidden)" stroke="#888"/>
    <text x="18" y="83" fill="#666" font-weight="bold">★ async — wall HIDDEN (swap)</text>
    <rect x="0" y="90" width="14" height="14" fill="url(#ompBarrierWait)" stroke="#d62828"/>
    <text x="18" y="100" fill="#a01010" font-weight="bold">★ libgomp barrier wait</text>
    <rect x="0" y="107" width="14" height="14" fill="url(#ispcCompute)" stroke="#3061ab"/>
    <text x="18" y="117" fill="#000">libpacpu compute (b1 attn 실행)</text>
    <rect x="0" y="124" width="14" height="14" fill="url(#futexHatch)" stroke="#e08a00"/>
    <text x="18" y="134" fill="#000">futex_wait (OMP worker sleep)</text>
    <rect x="0" y="141" width="14" height="14" fill="url(#epollHatch)" stroke="#3061ab"/>
    <text x="18" y="151" fill="#000">ep_poll (async_output / ZMQ)</text>
    <rect x="0" y="158" width="14" height="14" fill="url(#dopollHatch)" stroke="#4a7e1f"/>
    <text x="18" y="168" fill="#000">do_poll (CUDA event wait)</text>
    <rect x="0" y="175" width="14" height="14" fill="#eeeeee" stroke="#999" stroke-dasharray="3,2"/>
    <text x="18" y="185" fill="#000">GPU IDLE (CPU 기다림)</text>
    <line x1="0" y1="198" x2="14" y2="198" stroke="#d62828" stroke-width="1.5" stroke-dasharray="2,1"/>
    <text x="18" y="202" fill="#d62828">OMP barrier marker</text>
    <line x1="0" y1="211" x2="14" y2="211" stroke="#c00" stroke-width="1.5" stroke-dasharray="4,3" marker-end="url(#arr_wait)"/>
    <text x="18" y="215" fill="#c00">wait 대상 화살표</text>
  </g>
</svg>
