<?xml version="1.0" encoding="UTF-8"?>
<svg xmlns="http://www.w3.org/2000/svg" viewBox="0 0 1500 900" font-family="Menlo, monospace" font-size="11">
  <rect width="1500" height="900" fill="#fafafa"/>

  <!-- TITLE -->
  <text x="750" y="22" text-anchor="middle" font-size="15" font-weight="bold" fill="#222">vanilla vs NEO v1.6 — 1-step Timeline 비교 (NEO 추가 61 ms 의 출처 분해)</text>
  <text x="750" y="40" text-anchor="middle" font-size="11" fill="#555">
    vanilla step 54 ms (873s ÷ 8192 × 256 batch) vs NEO step 115 ms (1,844s 동일) — 동일 GPU compute 위에 NEO 가 추가하는 61 ms 의 시간/위치 분해
  </text>

  <!-- ============================================================== -->
  <!-- TIME AXIS — 0 ~ 120 ms, 10 ms = 110 px, x=160 시작 ~ x=1480 -->
  <!-- 1 ms = 11 px -->
  <!-- ============================================================== -->
  <line x1="160" y1="820" x2="1480" y2="820" stroke="#444" stroke-width="1"/>
  <g font-size="10" fill="#444">
    <text x="160" y="840" text-anchor="middle">0</text>
    <text x="270" y="840" text-anchor="middle">10</text>
    <text x="380" y="840" text-anchor="middle">20</text>
    <text x="490" y="840" text-anchor="middle">30</text>
    <text x="600" y="840" text-anchor="middle">40</text>
    <text x="694" y="855" text-anchor="middle" font-weight="bold" fill="#0a7c3a">54 ms ← vanilla 끝</text>
    <text x="710" y="840" text-anchor="middle">50</text>
    <text x="820" y="840" text-anchor="middle">60</text>
    <text x="930" y="840" text-anchor="middle">70</text>
    <text x="1040" y="840" text-anchor="middle">80</text>
    <text x="1150" y="840" text-anchor="middle">90</text>
    <text x="1260" y="840" text-anchor="middle">100</text>
    <text x="1370" y="840" text-anchor="middle">110</text>
    <text x="1425" y="855" text-anchor="middle" font-weight="bold" fill="#c00">115 ms ← NEO 끝</text>
  </g>
  <g stroke="#aaa" stroke-width="0.5">
    <line x1="160" y1="816" x2="160" y2="824"/>
    <line x1="270" y1="816" x2="270" y2="824"/>
    <line x1="380" y1="816" x2="380" y2="824"/>
    <line x1="490" y1="816" x2="490" y2="824"/>
    <line x1="600" y1="816" x2="600" y2="824"/>
    <line x1="710" y1="816" x2="710" y2="824"/>
    <line x1="820" y1="816" x2="820" y2="824"/>
    <line x1="930" y1="816" x2="930" y2="824"/>
    <line x1="1040" y1="816" x2="1040" y2="824"/>
    <line x1="1150" y1="816" x2="1150" y2="824"/>
    <line x1="1260" y1="816" x2="1260" y2="824"/>
    <line x1="1370" y1="816" x2="1370" y2="824"/>
  </g>
  <!-- vanilla finish line (vertical, x = 160 + 54*11 = 754) -->
  <line x1="754" y1="60" x2="754" y2="820" stroke="#0a7c3a" stroke-width="1.5" stroke-dasharray="6,3"/>
  <text x="760" y="55" font-size="10" font-weight="bold" fill="#0a7c3a">vanilla 54 ms</text>
  <!-- NEO finish line (x = 160 + 115*11 = 1425) -->
  <line x1="1425" y1="60" x2="1425" y2="820" stroke="#c00" stroke-width="1.5" stroke-dasharray="6,3"/>
  <text x="1431" y="55" font-size="10" font-weight="bold" fill="#c00">NEO 115 ms</text>

  <!-- ============================================================== -->
  <!-- TOP HALF: vanilla 1 step (NEO OFF) — 4 lane, all active in 0~54 ms -->
  <!-- ============================================================== -->
  <text x="155" y="82" text-anchor="end" font-weight="bold" fill="#222">vanilla (NEO OFF)</text>
  <text x="155" y="98" text-anchor="end" font-size="9" fill="#777">3-run avg 4,690.7 tps</text>

  <!-- Lane 1: vanilla main thread (Python) -->
  <text x="155" y="138" text-anchor="end" fill="#222">Main thread (Py)</text>
  <line x1="160" y1="155" x2="1480" y2="155" stroke="#ddd"/>
  <rect x="160" y="120" width="22" height="34" fill="#ffd966" stroke="#caa040" stroke-width="0.5"/>
  <text x="171" y="142" text-anchor="middle" font-size="8">sched</text>
  <rect x="182" y="120" width="572" height="34" fill="#fce5cd" stroke="#caa040" stroke-width="0.5"/>
  <text x="468" y="142" text-anchor="middle" font-size="10">Python forward (vanilla GPU dispatch, 80 layer × cuBLAS+Attn+Norm+AllReduce)</text>

  <!-- Lane 2: vanilla GPU stream -->
  <text x="155" y="190" text-anchor="end" fill="#222">GPU stream</text>
  <line x1="160" y1="207" x2="1480" y2="207" stroke="#ddd"/>
  <rect x="182" y="170" width="572" height="34" fill="#b6d7a8" stroke="#6aa84f" stroke-width="0.5"/>
  <text x="468" y="192" text-anchor="middle" font-size="10">GPU compute (GEMM + FlashAttn + rms_norm + NCCL ×320) ≈ 54 ms</text>

  <!-- Lane 3: vanilla NCCL barriers — 320 across 54ms — 9 sample dots at uniform spread -->
  <text x="155" y="240" text-anchor="end" fill="#222">NCCL barrier</text>
  <line x1="160" y1="257" x2="1480" y2="257" stroke="#ddd"/>
  <g fill="#d62828">
    <rect x="232" y="218" width="3" height="34"/>
    <rect x="294" y="218" width="3" height="34"/>
    <rect x="356" y="218" width="3" height="34"/>
    <rect x="418" y="218" width="3" height="34"/>
    <rect x="480" y="218" width="3" height="34"/>
    <rect x="542" y="218" width="3" height="34"/>
    <rect x="604" y="218" width="3" height="34"/>
    <rect x="666" y="218" width="3" height="34"/>
    <rect x="728" y="218" width="3" height="34"/>
  </g>
  <text x="468" y="240" text-anchor="middle" font-size="9" fill="#222">AllReduce ×320 (layer 당 4), 평균 55 μs/call, sum ~17.6 ms</text>

  <!-- Lane 4: vanilla swap/cdec/etc — NONE -->
  <text x="155" y="290" text-anchor="end" fill="#222">CPU side</text>
  <line x1="160" y1="307" x2="1480" y2="307" stroke="#ddd"/>
  <text x="468" y="290" text-anchor="middle" font-size="10" fill="#888" font-style="italic">— (vanilla 는 CPU work 없음, KV 전부 GPU resident) —</text>

  <!-- divider between vanilla and NEO -->
  <line x1="0" y1="335" x2="1500" y2="335" stroke="#444" stroke-width="1"/>

  <!-- ============================================================== -->
  <!-- BOTTOM HALF: NEO v1.6 1 step — 7 lane, active in 0~115 ms -->
  <!-- vanilla 영역 (0-54 ms) 와 NEO 추가 영역 (54-115 ms) 색 구분 -->
  <!-- ============================================================== -->
  <text x="155" y="357" text-anchor="end" font-weight="bold" fill="#222">NEO v1.6 (3-run avg 2,197.4 tps)</text>
  <rect x="160" y="345" width="595" height="14" fill="#e8f3e0" stroke="none"/>
  <text x="457" y="356" text-anchor="middle" font-size="9" fill="#0a7c3a">↓ vanilla 와 동일 GPU compute 영역 (0~54 ms)</text>
  <rect x="755" y="345" width="670" height="14" fill="#ffe6e6" stroke="none"/>
  <text x="1090" y="356" text-anchor="middle" font-size="9" fill="#c00">↓ NEO 추가 영역 (54~115 ms, +61 ms)</text>

  <!-- Lane 1: NEO main thread -->
  <text x="155" y="392" text-anchor="end" fill="#222">Main thread (Py)</text>
  <line x1="160" y1="410" x2="1480" y2="410" stroke="#ddd"/>
  <!-- scheduler.decide_mode + sub_batch attach (0-2ms = 0-22px) -->
  <rect x="160" y="375" width="22" height="34" fill="#ffd966" stroke="#caa040" stroke-width="0.5"/>
  <text x="171" y="397" text-anchor="middle" font-size="8">sched</text>
  <!-- Python forward (vanilla 영역, 2-54ms = 22-594px → x=182, w=572) -->
  <rect x="182" y="375" width="572" height="34" fill="#fce5cd" stroke="#caa040" stroke-width="0.5"/>
  <text x="468" y="397" text-anchor="middle" font-size="10">Python forward (80 layer, GPU dispatch — vanilla 동일 영역)</text>
  <!-- ★ NEO 추가 1: Python attention.py hot path overhead (skip_gpu check, _neo_drain, cdec submit, cudaStream sync) -->
  <rect x="754" y="375" width="132" height="34" fill="#f4cccc" stroke="#c44545" stroke-width="1"/>
  <text x="820" y="395" text-anchor="middle" font-size="9" fill="#c00">★ Py hot path</text>
  <text x="820" y="406" text-anchor="middle" font-size="8" fill="#000">+12 ms</text>
  <!-- ★ NEO 추가 2: cdec_future.result() wait (cdec dispatch blocking) -->
  <rect x="886" y="375" width="264" height="34" fill="#f4cccc" stroke="#c44545" stroke-width="1"/>
  <text x="1018" y="395" text-anchor="middle" font-size="9" fill="#c00">★ cdec_future.result() wait (BLOCKING)</text>
  <text x="1018" y="406" text-anchor="middle" font-size="8" fill="#000">+24 ms</text>
  <!-- swap_in launch (next step) + sample/emit -->
  <rect x="1150" y="375" width="275" height="34" fill="#fce5cd" stroke="#caa040" stroke-width="0.5"/>
  <text x="1287" y="395" text-anchor="middle" font-size="9">swap_in launch + sample + emit</text>
  <text x="1287" y="406" text-anchor="middle" font-size="8">+25 ms</text>

  <!-- Lane 2: NEO GPU stream0 (b0) -->
  <text x="155" y="445" text-anchor="end" fill="#222">GPU stream0 (b0)</text>
  <line x1="160" y1="462" x2="1480" y2="462" stroke="#ddd"/>
  <rect x="182" y="427" width="572" height="34" fill="#b6d7a8" stroke="#6aa84f" stroke-width="0.5"/>
  <text x="468" y="448" text-anchor="middle" font-size="10">GPU compute (vanilla 동일) ≈ 54 ms</text>
  <!-- GPU idle 영역 (54-115ms = GPU 가 일 없이 대기) -->
  <rect x="754" y="427" width="671" height="34" fill="#eeeeee" stroke="#999" stroke-width="0.5" stroke-dasharray="3,2"/>
  <text x="1090" y="445" text-anchor="middle" font-size="9" fill="#666">★ GPU IDLE — main thread 의 cdec wait 동안 next layer launch 못 함</text>
  <text x="1090" y="457" text-anchor="middle" font-size="8" fill="#666">GPU utilization 21% (12.5s / 60s)</text>

  <!-- Lane 3: NEO GPU stream1 (b1, chain fire 발화 시 skip) -->
  <text x="155" y="498" text-anchor="end" fill="#222">GPU stream1 (b1)</text>
  <line x1="160" y1="515" x2="1480" y2="515" stroke="#ddd"/>
  <rect x="182" y="480" width="572" height="34" fill="#e1cfff" stroke="#674ea7" stroke-width="0.5"/>
  <text x="468" y="500" text-anchor="middle" font-size="9">b1 attn (chain fire X 의 24 layer 만 GPU 실행, ≈ 2.4 ms 총)</text>

  <!-- Lane 4: cdec_executor (CPU pacpu, max_workers=2 cap) -->
  <text x="155" y="550" text-anchor="end" fill="#222">cdec_executor</text>
  <text x="155" y="563" text-anchor="end" font-size="9" fill="#777">max_workers=2</text>
  <line x1="160" y1="572" x2="1480" y2="572" stroke="#ddd"/>
  <!-- 56 layer × 2.37 ms / 2 worker = 66 ms total CPU pacpu work, 대부분 vanilla 영역 0-54ms 와 overlap -->
  <rect x="240" y="535" width="514" height="34" fill="#cfe2f3" stroke="#3061ab" stroke-width="0.5"/>
  <text x="497" y="557" text-anchor="middle" font-size="9">CPU pacpu (cdec 56 layer / 2 worker, 0~46 ms 의 64 ms wall = overlap)</text>
  <!-- cdec 가 vanilla 영역 안 에 안 끝나서 54ms 이후 까지 계속 — 이게 wall path block 의 원인 -->
  <rect x="754" y="535" width="396" height="34" fill="#f4cccc" stroke="#c44545" stroke-width="1"/>
  <text x="952" y="555" text-anchor="middle" font-size="9" fill="#c00">★ cdec 마무리 (24 ms 가 wall path 위로 밀려나옴)</text>
  <text x="952" y="566" text-anchor="middle" font-size="8">main thread 가 result() 기다림 = GPU stream0 idle</text>

  <!-- Lane 5: async_output thread -->
  <text x="155" y="603" text-anchor="end" fill="#222">async_output</text>
  <line x1="160" y1="620" x2="1480" y2="620" stroke="#ddd"/>
  <rect x="1370" y="585" width="55" height="34" fill="#cfe2f3" stroke="#3061ab" stroke-width="0.5"/>
  <text x="1397" y="606" text-anchor="middle" font-size="8">sync+emit</text>

  <!-- Lane 6: swap stream (D2H/H2D, async overlap) -->
  <text x="155" y="652" text-anchor="end" fill="#222">Swap stream</text>
  <text x="155" y="665" text-anchor="end" font-size="9" fill="#777">D2H/H2D async</text>
  <line x1="160" y1="672" x2="1480" y2="672" stroke="#ddd"/>
  <rect x="200" y="637" width="540" height="34" fill="#a4c2f4" stroke="#3061ab" stroke-width="0.5"/>
  <text x="470" y="658" text-anchor="middle" font-size="9">D2H swap_out (async, vanilla 영역 안 에서 hide ✓ — wall 영향 X)</text>
  <rect x="1180" y="637" width="245" height="34" fill="#a4c2f4" stroke="#3061ab" stroke-width="0.5"/>
  <text x="1303" y="658" text-anchor="middle" font-size="9">H2D swap_in (next step prep)</text>

  <!-- Lane 7: NEO 추가 영역의 분해 (CPU thread idle) -->
  <text x="155" y="703" text-anchor="end" fill="#222">CPU thread state</text>
  <text x="155" y="716" text-anchor="end" font-size="9" fill="#777">(OS Runtime)</text>
  <line x1="160" y1="722" x2="1480" y2="722" stroke="#ddd"/>
  <rect x="182" y="688" width="572" height="34" fill="#e8f3e0" stroke="#6aa84f" stroke-width="0.5"/>
  <text x="468" y="710" text-anchor="middle" font-size="9">main thread active (Py dispatch) + cdec worker active (pacpu)</text>
  <rect x="754" y="688" width="396" height="34" fill="#fff2cc" stroke="#caa040" stroke-width="1" stroke-dasharray="3,2"/>
  <text x="952" y="708" text-anchor="middle" font-size="9" fill="#a06000">★ pthread_cond_timedwait 30.2% + poll 27.5% + epoll_wait 25.7%</text>
  <text x="952" y="719" text-anchor="middle" font-size="8" fill="#a06000">→ CPU thread 90% idle wait 영역 (cdec result, NCCL barrier 등)</text>
  <rect x="1150" y="688" width="275" height="34" fill="#fce5cd" stroke="#caa040" stroke-width="0.5"/>
  <text x="1287" y="710" text-anchor="middle" font-size="9">main thread swap launch + Python overhead</text>

  <!-- ============================================================== -->
  <!-- BOTTOM: NEO 추가 61 ms 의 분해 표 -->
  <!-- ============================================================== -->
  <text x="160" y="770" font-size="13" font-weight="bold" fill="#c00">★ NEO 추가 61 ms / step 의 출처 분해 (vanilla 54 ms vs NEO 115 ms)</text>

  <g font-size="10">
    <text x="170" y="790" fill="#222">①</text>
    <rect x="190" y="780" width="14" height="14" fill="#f4cccc" stroke="#c44545"/>
    <text x="210" y="790" fill="#222">Python attention.py hot path × 80 layer : <tspan font-weight="bold">+12 ms</tspan> (skip_gpu check, _neo_drain_pending_cdec, cdec submit, cudaStream sync)</text>

    <text x="170" y="808" fill="#222">②</text>
    <rect x="190" y="798" width="14" height="14" fill="#f4cccc" stroke="#c44545"/>
    <text x="210" y="808" fill="#222">cdec_future.result() BLOCKING wait : <tspan font-weight="bold">+24 ms</tspan> (max_workers=2 cap 으로 56 cdec dispatch 가 wall 안에 안 끝남 — Amdahl bottleneck)</text>

    <text x="800" y="790" fill="#222">③</text>
    <rect x="820" y="780" width="14" height="14" fill="#fce5cd" stroke="#caa040"/>
    <text x="840" y="790" fill="#222">swap_in launch + sample + emit : <tspan font-weight="bold">+25 ms</tspan> (`_neo_handle_kv_swap` Python loop, ATen `index_kernel` GOMP, `copy_layer_out`)</text>

    <text x="800" y="808" fill="#222">합</text>
    <text x="820" y="808" fill="#000">12 + 24 + 25 = <tspan font-weight="bold" fill="#c00">+61 ms / step</tspan>  →  vanilla 54 ms × 2.13 = NEO 115 ms (측정 일치)</text>
  </g>

  <!-- LEGEND -->
  <g font-size="9" transform="translate(1240, 67)">
    <text x="0" y="-2" font-weight="bold">Legend</text>
    <rect x="0" y="5" width="14" height="14" fill="#fce5cd" stroke="#caa040"/>
    <text x="18" y="15" fill="#000">main thread Python</text>
    <rect x="0" y="22" width="14" height="14" fill="#f4cccc" stroke="#c44545"/>
    <text x="18" y="32" fill="#000">★ NEO 추가 영역</text>
    <rect x="0" y="39" width="14" height="14" fill="#b6d7a8" stroke="#6aa84f"/>
    <text x="18" y="49" fill="#000">GPU compute (active)</text>
    <rect x="0" y="56" width="14" height="14" fill="#eeeeee" stroke="#999" stroke-dasharray="3,2"/>
    <text x="18" y="66" fill="#000">GPU idle (★)</text>
    <rect x="0" y="73" width="14" height="14" fill="#cfe2f3" stroke="#3061ab"/>
    <text x="18" y="83" fill="#000">cdec_executor (CPU pacpu)</text>
    <rect x="0" y="90" width="14" height="14" fill="#a4c2f4" stroke="#3061ab"/>
    <text x="18" y="100" fill="#000">Swap stream (async, hide)</text>
    <rect x="0" y="107" width="14" height="14" fill="#fff2cc" stroke="#caa040" stroke-dasharray="3,2"/>
    <text x="18" y="117" fill="#000">CPU thread idle wait</text>
    <rect x="0" y="124" width="3" height="14" fill="#d62828"/>
    <text x="18" y="134" fill="#000">NCCL AllReduce</text>
  </g>
</svg>
